<?xml version="1.0" encoding="UTF-8"?>
<!DOCTYPE svg PUBLIC "-//W3C//DTD SVG 1.1//EN" "http://www.w3.org/Graphics/SVG/1.1/DTD/svg11.dtd">
<!-- Creator: CorelDRAW 2021.5 -->
<svg xmlns="http://www.w3.org/2000/svg" xml:space="preserve" width="100%" height="100%" version="1.1" style="shape-rendering:geometricPrecision; text-rendering:geometricPrecision; image-rendering:optimizeQuality; fill-rule:evenodd; clip-rule:evenodd"
viewBox="0 0 6944.44 6944.44"
 xmlns:xlink="http://www.w3.org/1999/xlink"
 xmlns:xodm="http://www.corel.com/coreldraw/odm/2003">
 <defs>
  <style type="text/css">
   <![CDATA[
    .fil0 {fill:#373435;fill-rule:nonzero}
    .fil2 {fill:url(#id0)}
    .fil1 {fill:url(#id1)}
   ]]>
  </style>
  <linearGradient id="id0" gradientUnits="userSpaceOnUse" x1="4937.95" y1="1721.02" x2="3630.85" y2="3046.65">
   <stop offset="0" style="stop-opacity:1; stop-color:#EB1A1A"/>
   <stop offset="1" style="stop-opacity:1; stop-color:#E34D4D"/>
  </linearGradient>
  <linearGradient id="id1" gradientUnits="userSpaceOnUse" x1="3628.99" y1="356.94" x2="2532.76" y2="2204.72">
   <stop offset="0" style="stop-opacity:1; stop-color:#6ABD50"/>
   <stop offset="1" style="stop-opacity:1; stop-color:#A8D05C"/>
  </linearGradient>
 </defs>
 <g id="Layer_x0020_1">
  <metadata id="CorelCorpID_0Corel-Layer"/>
  <path class="fil0" d="M456.54 5302.44l0 -208 283.02 0c52.29,0 93.2,-15.34 122.76,-46.03 29.55,-30.69 44.33,-68.2 44.33,-112.53 0,-30.69 -6.82,-57.96 -20.46,-81.83 -13.64,-23.87 -32.68,-42.62 -57.12,-56.26 -24.44,-13.64 -54.27,-20.46 -89.51,-20.46l-283.02 0 0 -202.89 260.85 0c44.33,0 80.13,-11.08 107.41,-33.24 27.28,-22.17 40.92,-55.98 40.92,-101.44 0,-44.33 -13.64,-77.57 -40.92,-99.74 -27.28,-22.17 -63.08,-33.25 -107.41,-33.25l-260.85 0 0 -208 312 0c77.29,0 142.93,14.21 196.92,42.63 53.99,28.41 95.19,66.49 123.61,114.23 28.42,47.74 42.63,100.59 42.63,158.56 0,73.88 -23.87,136.39 -71.61,187.54 -47.74,51.15 -118.21,86.38 -211.41,105.7l6.82 -90.36c101.16,19.32 179.3,58.54 234.43,117.64 55.13,59.1 82.69,131.85 82.69,218.23 0,65.93 -16.2,125.31 -48.59,178.17 -32.39,52.85 -79,94.62 -139.8,125.31 -60.81,30.69 -133.83,46.03 -219.08,46.03l-308.59 0zm-204.59 0l0 -1203.67 264.26 0 0 1203.67 -264.26 0z"/>
  <path id="_1" class="fil0" d="M1730.11 5321.19c-89.79,0 -169.64,-18.47 -239.54,-55.41 -69.9,-36.94 -124.74,-88.37 -164.52,-154.29 -39.78,-65.93 -59.67,-140.37 -59.67,-223.35 0,-82.97 19.61,-157.14 58.82,-222.49 39.21,-65.35 92.35,-116.79 159.41,-154.3 67.06,-37.51 142.65,-56.26 226.76,-56.26 81.83,0 154.01,17.61 216.52,52.85 62.52,35.24 111.67,84.11 147.48,146.62 35.8,62.52 53.7,134.12 53.7,214.82 0,14.78 -0.85,30.4 -2.56,46.88 -1.7,16.48 -4.83,35.52 -9.37,57.12l-714.36 1.7 0 -179.02 603.54 -1.7 -112.52 75.02c-1.14,-47.74 -8.52,-87.24 -22.17,-118.49 -13.64,-31.26 -33.81,-55.13 -60.52,-71.61 -26.71,-16.48 -59.39,-24.72 -98.03,-24.72 -40.92,0 -76.44,9.38 -106.56,28.13 -30.12,18.75 -53.42,45.18 -69.9,79.28 -16.48,34.1 -24.72,75.59 -24.72,124.46 0,48.87 8.81,90.65 26.43,125.31 17.62,34.67 42.63,61.38 75.02,80.13 32.39,18.76 70.75,28.13 115.08,28.13 40.92,0 77.86,-7.11 110.82,-21.31 32.96,-14.21 61.94,-35.52 86.95,-63.94l143.21 143.21c-40.92,47.74 -90.36,83.54 -148.33,107.41 -57.97,23.87 -121.62,35.8 -190.95,35.8z"/>
  <path id="_2" class="fil0" d="M2202.37 5149l416 -523.41 317.11 0 -416 523.41 -317.11 0zm0 153.44l0 -153.44 185.83 -64.79 537.05 0 0 218.23 -722.89 0zm30.69 -610.36l0 -218.23 702.43 0 0 151.74 -184.13 66.49 -518.3 0z"/>
  <path id="_3" class="fil0" d="M3622.57 5302.44l0 -472.26c0,-43.19 -13.35,-78.14 -40.06,-104.85 -26.71,-26.71 -61.09,-40.07 -103.15,-40.07 -28.41,0 -53.13,5.97 -74.16,17.9 -21.03,11.94 -37.8,28.98 -50.3,51.15 -12.5,22.16 -18.76,47.45 -18.76,75.87l-100.59 -49.44c0,-64.79 13.64,-121.62 40.92,-170.49 27.28,-48.87 65.36,-86.67 114.23,-113.38 48.87,-26.71 104.57,-40.06 167.08,-40.06 65.92,0 123.32,13.35 172.19,40.06 48.88,26.71 86.67,63.65 113.38,110.82 26.71,47.17 40.07,102.01 40.07,164.52l0 530.23 -260.85 0zm-545.57 0l-1.7 -1237.77 260.85 0 0 1237.77 -259.15 0z"/>
  <path id="_4" class="fil0" d="M4403.42 5319.48c-78.43,0 -147.76,-18.75 -208,-56.26 -60.24,-37.51 -107.98,-88.66 -143.21,-153.44 -35.24,-64.78 -52.85,-138.67 -52.85,-221.64 0,-82.97 17.33,-156.85 52,-221.64 34.67,-64.79 82.41,-115.94 143.21,-153.44 60.81,-37.51 130.43,-56.26 208.85,-56.26 56.83,0 108.26,10.8 154.3,32.39 46.03,21.59 84.11,51.43 114.23,89.51 30.12,38.07 46.89,81.55 50.3,130.43l0 349.51c-3.41,48.87 -19.89,92.92 -49.44,132.13 -29.56,39.21 -67.63,70.47 -114.23,93.77 -46.6,23.3 -98.31,34.95 -155.15,34.95zm46.03 -235.28c37.51,0 70.19,-8.24 98.03,-24.72 27.85,-16.48 49.44,-39.5 64.79,-69.05 15.35,-29.55 23.02,-63.65 23.02,-102.3 1.14,-39.78 -5.96,-74.17 -21.31,-103.15 -15.34,-28.98 -37.22,-51.72 -65.64,-68.2 -28.42,-16.48 -60.81,-25.29 -97.18,-26.43 -36.37,1.14 -68.48,9.95 -96.33,26.43 -27.85,16.48 -50.01,39.5 -66.49,69.05 -16.48,29.55 -24.72,63.65 -24.72,102.3 0,37.51 7.67,71.04 23.02,100.59 15.34,29.55 37.22,52.85 65.64,69.9 28.42,17.05 60.81,25.57 97.18,25.57zm431.35 218.23l-255.74 0 0 -223.34 39.21 -201.18 -44.33 -201.18 1.7 -612.07 259.15 0 0 1237.77z"/>
  <path id="_5" class="fil0" d="M5411.03 5319.48c-76.15,0 -144.07,-18.75 -203.74,-56.26 -59.67,-37.51 -106.84,-88.66 -141.51,-153.44 -34.67,-64.78 -52,-138.67 -52,-221.64 0,-82.97 17.33,-156.85 52,-221.64 34.67,-64.79 81.84,-115.94 141.51,-153.44 59.67,-37.51 127.59,-56.26 203.74,-56.26 55.69,0 105.99,10.8 150.88,32.39 44.9,21.59 81.56,51.43 109.97,89.51 28.42,38.07 44.33,81.55 47.74,130.43l0 358.03c-3.41,48.87 -19.04,92.35 -46.88,130.43 -27.85,38.08 -64.5,67.91 -109.97,89.51 -45.46,21.59 -96.04,32.39 -151.74,32.39zm52.85 -235.28c55.69,0 100.59,-18.47 134.69,-55.41 34.1,-36.94 51.15,-83.83 51.15,-140.66 0,-38.65 -7.67,-72.74 -23.02,-102.3 -15.34,-29.55 -36.94,-52.57 -64.79,-69.05 -27.85,-16.48 -59.95,-24.72 -96.33,-24.72 -36.37,0 -68.48,8.24 -96.33,24.72 -27.85,16.48 -50.01,39.5 -66.49,69.05 -16.48,29.55 -24.72,63.65 -24.72,102.3 0,37.51 7.96,71.04 23.87,100.59 15.91,29.55 38.08,52.85 66.49,69.9 28.42,17.05 60.24,25.57 95.48,25.57zm175.61 218.23l0 -223.34 39.21 -201.18 -39.21 -201.18 0 -202.89 255.74 0 0 828.59 -255.74 0z"/>
  <path id="_6" class="fil0" d="M6081.06 5302.44l-1.7 -828.59 260.85 0 0 828.59 -259.15 0zm259.15 -455.21l-109.11 -85.25c21.59,-96.61 57.97,-171.63 109.11,-225.05 51.15,-53.42 122.19,-80.13 213.11,-80.13 39.78,0 74.73,5.96 104.85,17.9 30.12,11.93 56.55,30.4 79.28,55.41l-155.15 196.06c-11.37,-12.5 -25.57,-22.16 -42.62,-28.98 -17.05,-6.82 -36.37,-10.23 -57.97,-10.23 -43.19,0 -77.57,13.36 -103.15,40.07 -25.57,26.71 -38.36,66.78 -38.36,120.2z"/>
  <path class="fil0" d="M1743.36 6561.72l0 -614.42 65.19 0 0 614.42 -65.19 0zm42.87 -277.74l0 -59.83 328.64 0.89 0.89 58.94 -329.54 0zm0 -276.85l0 -59.83 343.83 0 0.89 59.83 -344.72 0z"/>
  <path id="_1_0" class="fil0" d="M2234.54 6561.72l0 -419.74 63.41 0 0 419.74 -63.41 0zm31.26 -510.83c-11.91,0 -22.03,-4.32 -30.37,-12.95 -8.33,-8.63 -12.5,-18.91 -12.5,-30.81 0,-12.5 4.17,-22.92 12.5,-31.26 8.33,-8.34 18.46,-12.5 30.37,-12.5 13.1,0 23.67,4.17 31.7,12.5 8.04,8.33 12.06,18.75 12.06,31.26 0,11.91 -4.02,22.18 -12.06,30.81 -8.04,8.63 -18.6,12.95 -31.7,12.95z"/>
  <path id="_2_1" class="fil0" d="M2730.19 6561.72l0 -246.48c0,-36.91 -10.87,-66.83 -32.59,-89.75 -21.73,-22.92 -50.76,-34.38 -87.07,-34.38 -24.41,0 -45.69,5.36 -63.85,16.07 -18.16,10.72 -32.59,25.3 -43.31,43.76 -10.72,18.46 -16.07,39.59 -16.07,63.41l-28.58 -16.07c0,-31.55 7.44,-59.83 22.33,-84.84 14.89,-25 34.98,-44.65 60.28,-58.94 25.3,-14.29 54.03,-21.43 86.18,-21.43 32.74,0 61.62,7.74 86.63,23.22 25.01,15.48 44.5,36.32 58.5,62.52 13.99,26.2 20.99,54.78 20.99,85.73l-0.89 257.2 -62.52 0zm-305.43 0l0 -419.74 62.52 0 0 419.74 -62.52 0z"/>
  <path id="_3_2" class="fil0" d="M3092.77 6570.65c-39.89,0 -75.61,-9.67 -107.17,-29.02 -31.56,-19.35 -56.41,-45.4 -74.57,-78.14 -18.16,-32.74 -27.24,-69.66 -27.24,-110.74 0,-41.67 9.08,-79.04 27.24,-112.08 18.16,-33.04 43.02,-59.24 74.57,-78.59 31.55,-19.35 66.98,-29.02 106.27,-29.02 32.15,0 60.88,6.4 86.18,19.2 25.3,12.8 45.84,30.66 61.62,53.58 15.78,22.92 25.45,49.56 29.03,79.93l0 131.28c-3.57,30.36 -13.25,57.15 -29.03,80.37 -15.78,23.22 -36.31,41.23 -61.62,54.03 -25.3,12.8 -53.73,19.2 -85.29,19.2zm9.82 -59.83c43.46,0 78.44,-14.59 104.93,-43.76 26.5,-29.17 39.74,-67.57 39.74,-115.2 0,-31.56 -6.11,-59.39 -18.31,-83.5 -12.2,-24.11 -29.17,-42.87 -50.9,-56.26 -21.73,-13.4 -47.19,-20.09 -76.36,-20.09 -29.77,0 -56.11,6.85 -79.04,20.54 -22.92,13.69 -41.08,32.6 -54.48,56.71 -13.39,24.11 -20.09,51.65 -20.09,82.61 0,30.96 6.7,58.34 20.09,82.16 13.4,23.81 31.7,42.57 54.93,56.26 23.22,13.69 49.71,20.54 79.48,20.54zm141.1 50.91l0 -112.52 12.5 -103.59 -12.5 -100.92 0 -102.7 62.52 0 0 419.74 -62.52 0z"/>
  <path id="_4_3" class="fil0" d="M3738.44 6561.72l0 -246.48c0,-36.91 -10.87,-66.83 -32.59,-89.75 -21.73,-22.92 -50.76,-34.38 -87.07,-34.38 -24.41,0 -45.69,5.36 -63.85,16.07 -18.16,10.72 -32.59,25.3 -43.31,43.76 -10.72,18.46 -16.07,39.59 -16.07,63.41l-28.58 -16.07c0,-31.55 7.44,-59.83 22.33,-84.84 14.89,-25 34.98,-44.65 60.28,-58.94 25.3,-14.29 54.03,-21.43 86.18,-21.43 32.74,0 61.62,7.74 86.63,23.22 25.01,15.48 44.5,36.32 58.5,62.52 13.99,26.2 20.99,54.78 20.99,85.73l-0.89 257.2 -62.52 0zm-305.43 0l0 -419.74 62.52 0 0 419.74 -62.52 0z"/>
  <path id="_5_4" class="fil0" d="M4101.03 6570.65c-39.89,0 -75.61,-9.67 -107.17,-29.02 -31.56,-19.35 -56.41,-45.4 -74.57,-78.14 -18.16,-32.74 -27.24,-69.66 -27.24,-110.74 0,-41.67 9.08,-79.04 27.24,-112.08 18.16,-33.04 43.02,-59.24 74.57,-78.59 31.55,-19.35 66.98,-29.02 106.27,-29.02 32.15,0 60.88,6.4 86.18,19.2 25.3,12.8 45.84,30.66 61.62,53.58 15.78,22.92 25.45,49.56 29.03,79.93l0 131.28c-3.57,30.36 -13.25,57.15 -29.03,80.37 -15.78,23.22 -36.31,41.23 -61.62,54.03 -25.3,12.8 -53.73,19.2 -85.29,19.2zm9.82 -59.83c43.46,0 78.44,-14.59 104.93,-43.76 26.5,-29.17 39.74,-67.57 39.74,-115.2 0,-31.56 -6.11,-59.39 -18.31,-83.5 -12.2,-24.11 -29.17,-42.87 -50.9,-56.26 -21.73,-13.4 -47.19,-20.09 -76.36,-20.09 -29.77,0 -56.11,6.85 -79.04,20.54 -22.92,13.69 -41.08,32.6 -54.48,56.71 -13.39,24.11 -20.09,51.65 -20.09,82.61 0,30.96 6.7,58.34 20.09,82.16 13.4,23.81 31.7,42.57 54.93,56.26 23.22,13.69 49.71,20.54 79.48,20.54zm141.1 50.91l0 -112.52 12.5 -103.59 -12.5 -100.92 0 -102.7 62.52 0 0 419.74 -62.52 0z"/>
  <path id="_6_5" class="fil0" d="M4632.39 6570.65c-41.08,0 -78.14,-9.67 -111.19,-29.02 -33.04,-19.35 -59.24,-45.69 -78.59,-79.04 -19.35,-33.34 -29.03,-70.55 -29.03,-111.63 0,-41.08 9.68,-78.14 29.03,-111.19 19.35,-33.04 45.54,-59.09 78.59,-78.15 33.04,-19.05 70.11,-28.57 111.19,-28.57 31.56,0 61.03,5.95 88.41,17.86 27.39,11.91 50.61,28.58 69.66,50.01l-41.08 41.98c-14.29,-16.08 -31.56,-28.43 -51.8,-37.06 -20.24,-8.63 -41.97,-12.95 -65.19,-12.95 -29.77,0 -56.26,6.85 -79.48,20.54 -23.22,13.69 -41.38,32.3 -54.48,55.81 -13.1,23.52 -19.65,50.76 -19.65,81.72 0,30.36 6.55,57.6 19.65,81.71 13.1,24.11 31.26,43.02 54.48,56.71 23.22,13.69 49.71,20.54 79.48,20.54 23.81,0 45.85,-4.32 66.09,-12.95 20.24,-8.63 37.51,-20.98 51.8,-37.06l41.97 41.97c-19.65,22.03 -43.31,39 -71,50.91 -27.68,11.91 -57.3,17.86 -88.86,17.86z"/>
  <path id="_7" class="fil0" d="M5065.53 6570.65c-42.27,0 -80.08,-9.52 -113.42,-28.57 -33.34,-19.06 -59.69,-45.25 -79.04,-78.59 -19.35,-33.34 -29.03,-70.85 -29.03,-112.52 0,-41.08 9.53,-78.14 28.58,-111.19 19.05,-33.04 44.95,-59.09 77.7,-78.15 32.74,-19.05 69.36,-28.57 109.85,-28.57 38.1,0 71.89,8.63 101.36,25.9 29.47,17.26 52.69,41.23 69.66,71.89 16.97,30.66 25.45,65.94 25.45,105.83 0,4.76 -0.3,10.27 -0.89,16.52 -0.59,6.25 -1.79,13.54 -3.57,21.88l-363.47 0 0 -53.58 329.54 0 -22.33 19.65c0.59,-30.96 -4.61,-57.6 -15.63,-79.93 -11.01,-22.33 -26.79,-39.59 -47.33,-51.8 -20.54,-12.2 -45.4,-18.31 -74.57,-18.31 -30.36,0 -56.86,6.55 -79.48,19.65 -22.63,13.1 -40.34,31.41 -53.14,54.93 -12.8,23.52 -19.2,51.35 -19.2,83.5 0,32.15 6.7,60.43 20.09,84.84 13.39,24.41 32.15,43.46 56.26,57.16 24.11,13.69 51.95,20.54 83.5,20.54 25.6,0 49.12,-4.61 70.55,-13.84 21.43,-9.23 39.59,-23.07 54.48,-41.53l40.19 41.08c-19.65,23.22 -43.91,41.23 -72.78,54.03 -28.87,12.8 -59.98,19.2 -93.32,19.2z"/>
  <g id="_2344911369376">
   <path class="fil1" d="M2359.06 2543.59l0 -2154.74c0,-62.49 50.64,-113.13 113.13,-113.13l285.02 0c292.09,0 528.91,236.78 528.91,528.91l0 2252.31c0,35.52 -28.82,64.34 -64.34,64.34l-285.02 0c-319.07,0 -577.71,-258.64 -577.71,-577.7z"/>
   <path class="fil2" d="M4543.56 2799.15l0 -544.84c0,-34.85 -28.26,-63.08 -63.08,-63.08l-681.69 0c-162.89,0 -294.94,132.03 -294.94,294.94l0 599.26c0,19.81 16.06,35.87 35.87,35.87l681.69 0c177.92,0 322.15,-144.22 322.15,-322.14z"/>
  </g>
 </g>
</svg>
